<?xml version="1.0" ?>
<svg viewBox="1 1 22 22" xmlns="http://www.w3.org/2000/svg">
  <defs>
    <style>
      .cls-2{fill:#00984b;}
      .cls-3{fill:#fff;}
    </style>
  </defs>
  <g>
    <circle class="cls-2" cx="12" cy="12" r="11"/>
    <path 
      class="cls-3"
      transform="rotate(-45 12 12)"
      d="M11.28,11.7v-1a1.08,1.08,0,0,1,1.08-1.08h1.56A1.08,1.08,0,0,0,15,8.56V7.08A1.08,1.08,0,0,0,13.92,6H13a4,4,0,0,0-4,4V14a4,4,0,0,0,4,4h.89A1.08,1.08,0,0,0,15,16.92V15.44a1.08,1.08,0,0,0-1.08-1.08H12.36a1.08,1.08,0,0,1-1.08-1.08V11.7Z"
    />
  </g>
</svg>